<?xml version="1.0" encoding="utf-8"?>
<!-- Generator: Adobe Illustrator 25.4.1, SVG Export Plug-In . SVG Version: 6.00 Build 0)  -->
<svg version="1.1" id="Layer_1" xmlns="http://www.w3.org/2000/svg" xmlns:xlink="http://www.w3.org/1999/xlink" x="0px" y="0px"
	 viewBox="0 0 499.25 170.97" style="enable-background:new 0 0 499.25 170.97;" xml:space="preserve">
<style type="text/css">
	.st0{fill:#FFFFFF;}
	.st1{opacity:0.7;fill:#FFFFFF;}
</style>
<g>
	<path class="st0" d="M208.65,129.9c8.24,0,15.08-6.84,15.08-15.08s-6.84-15.08-15.08-15.08c-8.24,0-15.08,6.84-15.08,15.08
		S200.41,129.9,208.65,129.9 M223.73,78.59h24.73v72.47h-24.73v-8.24c-4.51,6.38-12.13,9.64-20.06,9.64
		c-17.88,0-35.3-14.31-35.3-37.79c0-23.48,17.42-37.94,35.3-37.94c7.31,0,15.55,3.27,20.06,9.64V78.59z"/>
	<path class="st0" d="M278.49,122.75c-22.7-6.22-22.39-19.13-22.39-24.41c0-10.88,13.37-21.62,29.55-21.62
		c15.24,0,31.88,6.22,31.72,25.04h-23.17c0-4.51-2.64-6.53-7.31-6.53c-3.11,0-6.07,1.24-6.07,4.04c0,1.87,0.93,3.58,5.44,4.67
		l12.91,3.58c18.66,4.98,20.22,17.26,20.22,21.93c0,16.02-17.42,23.02-32.81,23.02S255,143.43,255,126.79h23.17
		c0,3.11,2.33,7.46,8.4,7.46c4.04,0,7.62-1.87,7.62-4.82c0-2.18-1.24-2.8-6.53-4.2L278.49,122.75z"/>
	<path class="st0" d="M395.28,134.57c-7.15,10.73-18.04,17.88-32.03,17.88c-21.62,0-40.28-14.77-40.28-37.79
		c0-23.02,18.66-37.94,40.28-37.94c13.99,0,24.73,7.15,31.88,17.88l-20.22,12.13c-2.64-4.35-7.31-7.15-12.75-7.15
		c-8.24,0-15.08,6.84-15.08,15.08s6.84,15.08,15.08,15.08c5.13,0,9.64-2.64,12.44-6.69L395.28,134.57z"/>
	<path class="st0" d="M435.46,129.9c8.24,0,15.08-6.84,15.08-15.08s-6.84-15.08-15.08-15.08c-8.24,0-15.08,6.84-15.08,15.08
		S427.21,129.9,435.46,129.9 M450.54,55.21h24.73v95.85h-23.33v-10.42c-4.2,8.55-13.53,11.82-21.46,11.82
		c-17.88,0-35.3-14.31-35.3-37.79c0-23.48,17.42-37.94,35.3-37.94c8.71,0,15.39,3.42,20.06,8.55V55.21z"/>
	<g>
		<rect x="94.17" y="106.29" class="st1" width="38.25" height="25.5"/>
		<rect x="94.17" y="68.04" class="st0" width="38.25" height="38.25"/>
		<rect x="94.17" y="131.79" class="st0" width="38.25" height="38.25"/>
		<rect x="51.7" y="68.04" class="st1" width="42.47" height="38.25"/>
		<rect x="51.7" y="131.79" class="st1" width="42.47" height="38.25"/>
		<path class="st0" d="M38.95,119.04c0-7.04,5.71-12.75,12.75-12.75V68.04c-28.17,0-51,22.83-51,51s22.83,51,51,51v-38.25
			C44.66,131.79,38.95,126.08,38.95,119.04z"/>
		<path class="st0" d="M77.27,1.37c-55.15,0-55.15,0-55.15,0l110.3,55.15C132.42,56.52,132.42,1.37,77.27,1.37z"/>
		<path class="st1" d="M22.12,1.37c0,0,0,55.15,55.15,55.15c55.15,0,55.15,0,55.15,0L22.12,1.37z"/>
	</g>
	<g>
		<path class="st0" d="M490.26,54.7c4.29,0,7.7,3.5,7.7,7.79s-3.41,7.77-7.7,7.77c-4.29,0-7.68-3.48-7.68-7.77
			S485.96,54.7,490.26,54.7z M490.26,68.9c3.54,0,6.34-2.86,6.34-6.4s-2.79-6.43-6.34-6.43c-3.54,0-6.34,2.88-6.34,6.43
			S486.71,68.9,490.26,68.9z M491.44,63.62c1.19-0.31,1.7-1.36,1.7-2.42c0-1.28-0.82-2.55-2.51-2.55h-3.02v7.77h1.52v-2.69h0.51
			l1.94,2.69h1.85L491.44,63.62z M490.63,60.14c0.64,0,1.01,0.51,1.01,1.06c0,0.53-0.37,1.03-1.06,1.03h-1.45v-2.09H490.63z"/>
	</g>
</g>
</svg>
